<svg xmlns="http://www.w3.org/2000/svg" width="1939.866" height="1608" viewBox="0 0 1939.866 1608"><defs><style>.a{fill:#fff;}.b{fill:none;stroke:rgba(216,216,216,0.19);stroke-miterlimit:10;stroke-width:2px;}</style></defs><g transform="translate(19.866)"><rect class="a" width="1920" height="1608"/><line class="b" y2="934.648" transform="translate(16.55 225.672)"/><line class="b" y2="934.648" transform="translate(87.364 225.672)"/><line class="b" x2="0.008" y2="934.648" transform="translate(158.172 225.672)"/><line class="b" y2="934.648" transform="translate(228.986 225.672)"/><line class="b" y2="934.648" transform="translate(16.55 157.023)"/><path class="b" d="M1614.22-475V411.5a39.32,39.32,0,0,1-13.991,30.076l-56.84,47.881L1486.58,441.58a39.3,39.3,0,0,1-13.99-30.067h0" transform="translate(-1491.456 632.055)"/><path class="b" d="M1561.83,489.462V-435.7a39.328,39.328,0,0,1,39.328-39.3h31.107" transform="translate(-1509.881 632.055)"/><line class="b" y2="934.648" transform="translate(87.364 157.023)"/><path class="b" d="M1703.46-475V411.5a39.32,39.32,0,0,1-13.991,30.076l-56.84,47.881-56.817-47.882a39.32,39.32,0,0,1-13.982-30.067h0" transform="translate(-1509.881 632.055)"/><path class="b" d="M1651.07,489.462V-435.7A39.328,39.328,0,0,1,1690.4-475H1721.5" transform="translate(-1528.307 632.055)"/><line class="b" x2="0.008" y2="934.648" transform="translate(158.172 157.023)"/><path class="b" d="M1792.7-475V411.5a39.319,39.319,0,0,1-13.991,30.076l-56.84,47.881-56.817-47.882a39.319,39.319,0,0,1-13.982-30.067h0" transform="translate(-1528.306 632.055)"/><path class="b" d="M1740.31,489.462V-435.7a39.327,39.327,0,0,1,39.327-39.3h31.1" transform="translate(-1546.73 632.055)"/><line class="b" y2="934.648" transform="translate(228.986 157.023)"/><path class="b" d="M1881.94-475V411.5a39.343,39.343,0,0,1-13.99,30.075l-56.841,47.882-56.817-47.882a39.319,39.319,0,0,1-13.982-30.067h0" transform="translate(-1546.73 632.055)"/><path class="b" d="M1829.55,489.462V-435.7a39.327,39.327,0,0,1,39.328-39.3h31.1" transform="translate(-1565.156 632.055)"/><path class="b" d="M1971.15-475V411.5a39.323,39.323,0,0,1-13.991,30.069l-56.84,47.888L1843.5,441.58a39.32,39.32,0,0,1-13.982-30.067h0" transform="translate(-1565.15 632.055)"/></g></svg>