<svg xmlns="http://www.w3.org/2000/svg" width="127" height="127" viewBox="0 0 127 127"><defs><style>.a{fill:#a4a6a8;}.b,.d{fill:none;}.b{stroke:#936957;stroke-width:4px;}.c{stroke:none;}</style></defs><g transform="translate(-309 -1006)"><path class="a" d="M64.091,44.272c0-.015,0-.029,0-.043s0-.006,0-.01c0-.024,0-.047,0-.071s0-.023,0-.034-.006-.041-.009-.061,0-.029-.008-.044-.008-.031-.012-.047-.01-.037-.016-.056-.009-.024-.013-.036-.016-.042-.025-.063l0-.01L53.018,19.64V16.473h.069a2.148,2.148,0,0,0,2.146-2.146v-.164a2.137,2.137,0,0,0-1.8-2.118L35.3,9.119V7.26a4.361,4.361,0,1,0-6.506,0V9.018L10.652,12.042a2.139,2.139,0,0,0-1.793,2.116v.169A2.148,2.148,0,0,0,11,16.473h.069V19.64L.092,43.8l0,.01c-.009.02-.017.041-.025.062s-.009.024-.013.036-.011.037-.016.056-.009.031-.012.047-.005.029-.008.044-.007.041-.009.061,0,.023,0,.034,0,.047,0,.07c0,0,0,.007,0,.01s0,.029,0,.044,0,.023,0,.035c.065,4.27,5.359,7.6,12.11,7.6s12.045-3.334,12.11-7.6c0-.012,0-.023,0-.035s0-.029,0-.043,0-.006,0-.01c0-.024,0-.047,0-.071s0-.023,0-.034-.006-.041-.009-.061,0-.029-.008-.044-.008-.031-.012-.047-.01-.037-.016-.056-.009-.024-.013-.036-.016-.042-.025-.063l0-.01L13.15,19.64V16.473H28.793V39.03a2.147,2.147,0,0,0-1.107,1.876V56.2l-6.577,2.055a3.239,3.239,0,0,0-2.283,3.105v1.694a1.038,1.038,0,0,0,1.038,1.038H44.228a1.038,1.038,0,0,0,1.038-1.038V61.361a3.239,3.239,0,0,0-2.283-3.105L36.407,56.2V40.906A2.147,2.147,0,0,0,35.3,39.03V16.473H50.942V19.64L39.96,43.8l0,.01c-.009.02-.017.041-.025.062s-.009.024-.013.036-.011.037-.016.056-.009.031-.012.047-.005.029-.008.044-.007.041-.009.061,0,.023,0,.034,0,.047,0,.07c0,0,0,.007,0,.01s0,.029,0,.044,0,.023,0,.035c.065,4.27,5.359,7.6,12.11,7.6s12.045-3.334,12.11-7.6C64.091,44.3,64.091,44.284,64.091,44.272Zm-51.979-21.9,9.462,20.817H2.65Zm0,27.461c-4.807,0-8.955-2-9.855-4.568H21.967C21.067,47.83,16.919,49.835,12.112,49.835ZM34.33,40.906v15.02H29.762V40.906a.069.069,0,0,1,.069-.069h4.43A.069.069,0,0,1,34.33,40.906Zm-3.461-2.146V8.559a4.337,4.337,0,0,0,2.353,0v30.2ZM32.046,2.076a2.284,2.284,0,1,1-2.284,2.284A2.287,2.287,0,0,1,32.046,2.076ZM11,14.4a.069.069,0,0,1-.069-.069v-.169a.069.069,0,0,1,.058-.068l17.8-2.967V14.4ZM43.19,61.361v.656H20.9v-.656a1.171,1.171,0,0,1,.826-1.123L28.882,58H35.21l7.154,2.236A1.172,1.172,0,0,1,43.19,61.361ZM35.3,11.223l17.8,2.872a.069.069,0,0,1,.058.068v.164a.069.069,0,0,1-.069.069H35.3ZM51.98,22.374l9.462,20.817H42.518Zm0,27.461c-4.807,0-8.955-2-9.855-4.568H61.836C60.935,47.83,56.787,49.835,51.98,49.835Z" transform="translate(340.454 1037.453)"/><g class="b" transform="translate(309 1006)"><circle class="c" cx="63.5" cy="63.5" r="63.5"/><circle class="d" cx="63.5" cy="63.5" r="61.5"/></g></g></svg>