<svg xmlns="http://www.w3.org/2000/svg" width="127" height="127" viewBox="0 0 127 127"><defs><style>.a,.d{fill:none;}.a{stroke:#936957;stroke-width:4px;}.b{fill:#a4a6a8;}.c{stroke:none;}</style></defs><g transform="translate(-309 -652)"><g class="a" transform="translate(309 652)"><circle class="c" cx="63.5" cy="63.5" r="63.5"/><circle class="d" cx="63.5" cy="63.5" r="61.5"/></g><path class="b" d="M107.981,2.54H76.158V2.46A2.463,2.463,0,0,0,73.7,0H66.079a2.463,2.463,0,0,0-2.46,2.46V2.54H59.73A3.734,3.734,0,0,0,56,6.269V69.758a3.734,3.734,0,0,0,3.73,3.73h48.251a3.734,3.734,0,0,0,3.73-3.73V6.269A3.734,3.734,0,0,0,107.981,2.54ZM66,2.46a.079.079,0,0,1,.079-.079H73.7a.079.079,0,0,1,.079.079V17.041L70.42,15.363a1.19,1.19,0,0,0-1.065,0L66,17.041Zm43.331,67.3a1.351,1.351,0,0,1-1.349,1.349H59.73a1.351,1.351,0,0,1-1.349-1.349V6.269A1.351,1.351,0,0,1,59.73,4.92h3.889V18.967a1.19,1.19,0,0,0,1.723,1.065l4.547-2.273,4.547,2.273a1.19,1.19,0,0,0,1.723-1.065V4.92h31.824a1.351,1.351,0,0,1,1.349,1.349V69.758Z" transform="translate(288.645 678.758)"/><path class="b" d="M155.39,159.952c0-.011,0-.022,0-.033s-.007-.047-.011-.071,0-.033-.008-.049-.008-.031-.012-.047-.012-.047-.019-.07-.007-.02-.011-.03c-.01-.028-.02-.056-.032-.082l0-.006-4.977-11.2v-1.1h1.349a1.19,1.19,0,1,0,0-2.381H138.888v-1.624a3.73,3.73,0,1,0-2.381,0v1.624H123.73a1.19,1.19,0,1,0,0,2.381h1.349v1.1l-4.977,11.2,0,.006c-.012.027-.022.054-.032.082,0,.01-.008.02-.011.031s-.013.047-.019.07-.009.031-.012.047-.005.033-.008.049-.008.047-.011.071,0,.022,0,.033c0,.029,0,.058,0,.087,0,0,0,0,0,.007,0,2.757,2.813,5,6.269,5s6.269-2.243,6.269-5c0,0,0,0,0-.007,0-.029,0-.058,0-.087,0-.011,0-.022,0-.033s-.007-.047-.011-.071,0-.033-.008-.049-.008-.031-.012-.047-.012-.047-.019-.07-.007-.02-.011-.03c-.01-.028-.02-.056-.032-.082l0-.006-4.977-11.2v-1.1h9.047v10.513a3.736,3.736,0,0,0-2.54,3.534v8.968h-2.619a1.19,1.19,0,1,0,0,2.381h12.7a1.19,1.19,0,0,0,0-2.381h-2.619v-8.968a3.736,3.736,0,0,0-2.54-3.534V147.269h9.047v1.1l-4.977,11.2,0,.006c-.012.027-.022.054-.032.082,0,.01-.008.02-.011.031s-.013.047-.019.07-.009.031-.012.047-.005.033-.008.049-.008.047-.011.071,0,.022,0,.033c0,.029,0,.058,0,.087,0,0,0,0,0,.007,0,2.757,2.813,5,6.269,5s6.269-2.243,6.269-5c0,0,0,0,0-.007C155.394,160.01,155.392,159.981,155.39,159.952ZM137.7,138.381a1.349,1.349,0,1,1-1.349,1.349A1.351,1.351,0,0,1,137.7,138.381Zm-11.428,13.169,3.247,7.306h-6.495Zm0,11.116a4.434,4.434,0,0,1-3.448-1.428h6.9A4.433,4.433,0,0,1,126.269,162.665Zm12.777,7.619h-2.7v-8.968a1.349,1.349,0,0,1,2.7,0Zm10.079-18.734,3.247,7.306h-6.495Zm0,11.116a4.434,4.434,0,0,1-3.448-1.428h6.9A4.433,4.433,0,0,1,149.125,162.665Z" transform="translate(234.803 564.344)"/></g></svg>