<svg xmlns="http://www.w3.org/2000/svg" width="127" height="127" viewBox="0 0 127 127"><defs><style>.a{fill:#a4a6a8;}.b,.d{fill:none;}.b{stroke:#936957;stroke-width:4px;}.c{stroke:none;}</style></defs><g transform="translate(-309 -829)"><path class="a" d="M293.891,354.692H292.78v-1.111a3.075,3.075,0,0,0-3.071-3.071H279.253a3.075,3.075,0,0,0-3.071,3.071v1.111h-1.111A3.075,3.075,0,0,0,272,357.764v2.091a.98.98,0,0,0,.98.98h23a.98.98,0,0,0,.98-.98v-2.091A3.075,3.075,0,0,0,293.891,354.692Zm-15.749-1.111a1.112,1.112,0,0,1,1.111-1.111h10.455a1.112,1.112,0,0,1,1.111,1.111v1.111H278.143ZM295,358.874H273.96v-1.111a1.112,1.112,0,0,1,1.111-1.111h18.82A1.112,1.112,0,0,1,295,357.764Z" transform="translate(105.793 557.543)"/><path class="a" d="M37.509,58l-.046.046a3.071,3.071,0,0,0,4.343,4.343l5.915-5.914a3.071,3.071,0,0,0-4.343-4.343l-.046.046-2.274-2.274a2.027,2.027,0,0,0-.513-1.992L34.2,41.567a2.026,2.026,0,0,0-1.992-.513L29.931,38.78l.046-.046a3.071,3.071,0,0,0-4.343-4.343l-5.914,5.914a3.071,3.071,0,0,0,4.343,4.343l.046-.046,2.273,2.273a2.033,2.033,0,0,0-.079.56,2.012,2.012,0,0,0,.593,1.432l.263.263-2.032,2.032a3.062,3.062,0,0,0-.889,2.367L.9,76.868a3.071,3.071,0,0,0,4.343,4.343L28.581,57.874c.065,0,.13.009.2.009a3.062,3.062,0,0,0,2.172-.9l2.032-2.032.263.263a2.012,2.012,0,0,0,1.432.593,2.033,2.033,0,0,0,.56-.079Zm8.04-4.807a1.111,1.111,0,0,1,.786,1.9L40.42,61.006a1.111,1.111,0,0,1-1.571-1.571l5.915-5.915A1.107,1.107,0,0,1,45.549,53.2ZM38.9,56.616,36.8,54.522l3.05-3.05,2.094,2.094ZM21.106,43.262a1.112,1.112,0,0,1,0-1.571l5.914-5.914a1.111,1.111,0,0,1,1.571,1.571l-5.915,5.914A1.112,1.112,0,0,1,21.106,43.262Zm7.439-3.1,2.094,2.094-3.05,3.05L25.5,43.216ZM3.857,79.825a1.111,1.111,0,1,1-1.571-1.571l22.8-22.8c.015.016.028.033.044.049l1.479,1.479c.016.016.033.029.049.044ZM29.562,55.6a1.112,1.112,0,0,1-1.571,0L26.513,54.12a1.112,1.112,0,0,1,0-1.571l2.032-2.032,3.05,3.05Zm-1.28-8.117a.065.065,0,0,1,0-.092l4.436-4.436a.066.066,0,0,1,.093,0L39.158,49.3a.066.066,0,0,1,0,.093l-4.436,4.436a.066.066,0,0,1-.093,0Z" transform="translate(342.245 833.131)"/><g class="b" transform="translate(309 829)"><circle class="c" cx="63.5" cy="63.5" r="63.5"/><circle class="d" cx="63.5" cy="63.5" r="61.5"/></g></g></svg>