<svg xmlns="http://www.w3.org/2000/svg" xmlns:xlink="http://www.w3.org/1999/xlink" width="1628.713" height="1233.946" viewBox="0 0 1628.713 1233.946"><defs><style>.a,.c{fill:none;stroke:rgba(216,216,216,0.19);}.b{clip-path:url(#a);}.c{stroke-miterlimit:10;stroke-width:2px;}</style><clipPath id="a"><path class="a" d="M0,0H1628.713V1233.946H0Z"/></clipPath></defs><g class="b"><path class="c" d="M97.15-.36V784.1A39.336,39.336,0,0,1,83.159,814.18l-56.84,47.873L-30.49,814.179A39.327,39.327,0,0,1-44.48,784.1h0" transform="translate(44.48 377.003)"/><path class="c" d="M44.77,862.053V38.968A39.328,39.328,0,0,1,84.1-.36H115.2" transform="translate(26.053 377.003)"/><line class="c" x2="0.008" y2="832.568" transform="translate(106.23 376.643)"/><path class="c" d="M186.4-.36V784.1a39.336,39.336,0,0,1-13.991,30.084l-56.832,47.873L58.762,814.179A39.351,39.351,0,0,1,44.78,784.1h0" transform="translate(26.051 377.003)"/><path class="c" d="M134,862.053V38.968A39.328,39.328,0,0,1,173.335-.36h31.107" transform="translate(7.63 377.003)"/><line class="c" y2="832.568" transform="translate(177.045 376.643)"/><path class="c" d="M275.638-.36V784.1a39.336,39.336,0,0,1-13.991,30.084l-56.84,47.873L147.99,814.179A39.351,39.351,0,0,1,134,784.1h0" transform="translate(7.63 377.003)"/><path class="c" d="M223.25,862.053V38.968A39.328,39.328,0,0,1,262.578-.36h31.1" transform="translate(-10.797 377.003)"/><line class="c" y2="832.568" transform="translate(247.86 376.643)"/><path class="c" d="M364.88-.36V784.1A39.354,39.354,0,0,1,350.9,814.173l-56.848,47.88-56.817-47.874A39.351,39.351,0,0,1,223.25,784.1h0" transform="translate(-10.797 377.003)"/><path class="c" d="M312.49,862.053V38.968A39.328,39.328,0,0,1,351.818-.36h31.1" transform="translate(-29.222 377.003)"/><line class="c" y2="832.568" transform="translate(318.675 376.643)"/><path class="c" d="M454.15-.36V784.1a39.339,39.339,0,0,1-13.991,30.077l-56.84,47.88L326.5,814.179A39.351,39.351,0,0,1,312.52,784.1h0" transform="translate(-29.228 377.003)"/><path class="c" d="M401.73,862.053V38.968A39.328,39.328,0,0,1,441.058-.36h31.1" transform="translate(-47.647 377.003)"/><line class="c" y2="832.568" transform="translate(389.49 376.643)"/><path class="c" d="M543.352-.36V784.1a39.336,39.336,0,0,1-13.991,30.084l-56.84,47.873-56.809-47.874A39.351,39.351,0,0,1,401.73,784.1h0" transform="translate(-47.647 377.003)"/><path class="c" d="M491,862.053V38.968A39.328,39.328,0,0,1,530.3-.36h31.1" transform="translate(-66.078 377.003)"/><line class="c" y2="832.568" transform="translate(460.305 376.643)"/><path class="c" d="M632.6-.36V784.1a39.336,39.336,0,0,1-13.991,30.084l-56.84,47.873-56.809-47.874A39.319,39.319,0,0,1,491,784.1h0" transform="translate(-66.078 377.003)"/><path class="c" d="M580.21,862.053V38.968A39.328,39.328,0,0,1,619.538-.36h31.13" transform="translate(-84.497 377.003)"/><line class="c" y2="832.568" transform="translate(531.12 376.643)"/><path class="c" d="M721.83-.36V784.1a39.336,39.336,0,0,1-13.991,30.084L651,862.053,594.19,814.179A39.327,39.327,0,0,1,580.2,784.1h0" transform="translate(-84.495 377.003)"/><path class="c" d="M669.44,862.053V38.968A39.328,39.328,0,0,1,708.768-.36h31.107" transform="translate(-102.92 377.003)"/><line class="c" y2="832.568" transform="translate(601.935 376.643)"/><path class="c" d="M811.07-.36V784.1a39.336,39.336,0,0,1-13.991,30.084l-56.84,47.873L683.43,814.179A39.328,39.328,0,0,1,669.44,784.1h0" transform="translate(-102.92 377.003)"/><path class="c" d="M758.68,862.053V38.968A39.328,39.328,0,0,1,798.008-.36h31.107" transform="translate(-121.345 377.003)"/><line class="c" y2="832.568" transform="translate(672.75 376.643)"/><path class="c" d="M900.31-.36V784.1a39.337,39.337,0,0,1-13.991,30.084l-56.84,47.873-56.817-47.874A39.351,39.351,0,0,1,758.68,784.1h0" transform="translate(-121.345 377.003)"/><path class="c" d="M847.92,862.053V38.968A39.328,39.328,0,0,1,887.247-.36h31.107" transform="translate(-139.77 377.003)"/><line class="c" x2="0.008" y2="832.568" transform="translate(743.557 376.643)"/><path class="c" d="M989.55-.36V784.1a39.336,39.336,0,0,1-13.991,30.084l-56.84,47.873L861.9,814.179A39.352,39.352,0,0,1,847.92,784.1h0" transform="translate(-139.77 377.003)"/><path class="c" d="M937.16,862.053V38.968A39.328,39.328,0,0,1,976.488-.36h31.106" transform="translate(-158.195 377.003)"/><line class="c" y2="832.568" transform="translate(814.372 376.643)"/><path class="c" d="M1078.79-.36V784.1A39.336,39.336,0,0,1,1064.8,814.18l-56.84,47.873-56.817-47.874A39.351,39.351,0,0,1,937.16,784.1h0" transform="translate(-158.195 377.003)"/><path class="c" d="M1026.4,862.053V38.968A39.328,39.328,0,0,1,1065.759-.36h31.1" transform="translate(-176.62 377.003)"/><line class="c" y2="832.568" transform="translate(885.187 376.643)"/><path class="c" d="M1168.03-.36V784.1a39.339,39.339,0,0,1-13.991,30.077l-56.84,47.88-56.817-47.874A39.351,39.351,0,0,1,1026.4,784.1h0" transform="translate(-176.62 377.003)"/><path class="c" d="M1115.64,862.053V38.968A39.327,39.327,0,0,1,1154.968-.36h31.1" transform="translate(-195.045 377.003)"/><line class="c" y2="832.568" transform="translate(956.002 376.643)"/><path class="c" d="M1257.26-.36V784.1a39.339,39.339,0,0,1-13.991,30.077l-56.848,47.88-56.809-47.874A39.351,39.351,0,0,1,1115.63,784.1h0" transform="translate(-195.043 377.003)"/><path class="c" d="M1204.88,862.053V38.968A39.327,39.327,0,0,1,1244.208-.36h31.1" transform="translate(-213.47 377.003)"/><line class="c" y2="832.568" transform="translate(1026.817 376.643)"/><path class="c" d="M1346.5-.36V784.1a39.336,39.336,0,0,1-13.991,30.084l-56.84,47.873-56.809-47.874A39.351,39.351,0,0,1,1204.88,784.1h0" transform="translate(-213.47 377.003)"/><path class="c" d="M1294.12,862.053V38.968A39.328,39.328,0,0,1,1333.448-.36h31.1" transform="translate(-231.895 377.003)"/><line class="c" y2="832.568" transform="translate(1097.632 376.643)"/><path class="c" d="M1435.742-.36V784.1a39.336,39.336,0,0,1-13.991,30.084l-56.84,47.873L1308.1,814.179A39.32,39.32,0,0,1,1294.12,784.1h0" transform="translate(-231.895 377.003)"/><path class="c" d="M1383.35,862.053V38.968A39.328,39.328,0,0,1,1422.686-.36h31.1" transform="translate(-250.318 377.003)"/><line class="c" y2="832.568" transform="translate(1168.447 376.643)"/><path class="c" d="M1524.984-.36V784.1a39.336,39.336,0,0,1-13.991,30.084l-56.84,47.873-56.793-47.874a39.328,39.328,0,0,1-13.99-30.075h0" transform="translate(-250.322 377.003)"/><path class="c" d="M1472.59,862.053V38.968A39.328,39.328,0,0,1,1511.918-.36h31.106" transform="translate(-268.743 377.003)"/><line class="c" y2="832.568" transform="translate(1239.262 376.643)"/><path class="c" d="M1614.22-.36V784.1a39.336,39.336,0,0,1-13.991,30.084l-56.84,47.873-56.809-47.874a39.328,39.328,0,0,1-13.99-30.075h0" transform="translate(-268.743 377.003)"/><path class="c" d="M1561.83,862.053V38.968A39.328,39.328,0,0,1,1601.157-.36h31.107" transform="translate(-287.168 377.003)"/><line class="c" y2="832.568" transform="translate(1310.077 376.643)"/><path class="c" d="M1703.46-.36V784.1a39.336,39.336,0,0,1-13.991,30.084l-56.84,47.873-56.817-47.874A39.351,39.351,0,0,1,1561.83,784.1h0" transform="translate(-287.168 377.003)"/><path class="c" d="M1651.07,862.053V38.968A39.328,39.328,0,0,1,1690.4-.36H1721.5" transform="translate(-305.593 377.003)"/><line class="c" x2="0.008" y2="832.568" transform="translate(1380.884 376.643)"/><path class="c" d="M1792.7-.36V784.1a39.336,39.336,0,0,1-13.991,30.084l-56.84,47.873-56.817-47.874A39.351,39.351,0,0,1,1651.07,784.1h0" transform="translate(-305.593 377.003)"/><path class="c" d="M1740.31,862.053V38.968A39.327,39.327,0,0,1,1779.637-.36h31.1" transform="translate(-324.018 377.003)"/><line class="c" y2="832.568" transform="translate(1451.699 376.643)"/><path class="c" d="M1881.94-.36V784.1a39.355,39.355,0,0,1-13.983,30.077l-56.848,47.88-56.817-47.874A39.35,39.35,0,0,1,1740.31,784.1h0" transform="translate(-324.018 377.003)"/><path class="c" d="M1829.55,862.053V38.968A39.327,39.327,0,0,1,1868.878-.36h31.1" transform="translate(-342.443 377.003)"/><line class="c" y2="832.568" transform="translate(1522.514 376.643)"/><path class="c" d="M1971.15-.36V784.1a39.34,39.34,0,0,1-13.991,30.077l-56.84,47.88L1843.5,814.179A39.352,39.352,0,0,1,1829.52,784.1h0" transform="translate(-342.437 377.003)"/><path class="c" d="M1918.79,862.053V38.968A39.327,39.327,0,0,1,1958.118-.36h31.1" transform="translate(-360.868 377.003)"/><line class="c" y2="832.568" transform="translate(1593.329 376.643)"/><path class="c" d="M7.92-.36V784.1A39.336,39.336,0,0,1-6.071,814.18l-56.84,47.873-56.809-47.874A39.327,39.327,0,0,1-133.71,784.1h0" transform="translate(62.903 377.003)"/><path class="c" d="M-44.47,862.053V38.968A39.328,39.328,0,0,1-5.142-.36H25.964" transform="translate(44.478 377.003)"/><line class="c" y2="832.568" transform="translate(35.423 376.643)"/><path class="c" d="M97.152-86.87V697.586A39.336,39.336,0,0,1,83.161,727.67L26.329,775.543-30.48,727.669a39.327,39.327,0,0,1-13.99-30.075h0" transform="translate(44.478 394.865)"/><path class="c" d="M44.77,775.543V-47.542A39.328,39.328,0,0,1,84.1-86.87H115.2" transform="translate(26.053 394.865)"/><line class="c" x2="0.008" y2="832.576" transform="translate(106.23 307.987)"/><path class="c" d="M186.4-86.87V697.586a39.336,39.336,0,0,1-13.991,30.084l-56.832,47.873L58.752,727.669A39.351,39.351,0,0,1,44.77,697.594h0" transform="translate(26.053 394.865)"/><path class="c" d="M134,775.543V-47.542A39.328,39.328,0,0,1,173.328-86.87h31.107" transform="translate(7.63 394.865)"/><line class="c" y2="832.576" transform="translate(177.045 307.987)"/><path class="c" d="M275.638-86.87V697.586a39.336,39.336,0,0,1-13.991,30.084l-56.84,47.873L147.99,727.669A39.351,39.351,0,0,1,134,697.594h0" transform="translate(7.63 394.865)"/><path class="c" d="M223.25,775.543V-47.542A39.328,39.328,0,0,1,262.578-86.87h31.1" transform="translate(-10.797 394.865)"/><line class="c" y2="832.576" transform="translate(247.86 307.987)"/><path class="c" d="M364.88-86.87V697.586A39.354,39.354,0,0,1,350.9,727.663l-56.848,47.88-56.817-47.874a39.351,39.351,0,0,1-13.982-30.075h0" transform="translate(-10.797 394.865)"/><path class="c" d="M312.49,775.543V-47.542A39.328,39.328,0,0,1,351.818-86.87h31.1" transform="translate(-29.222 394.865)"/><line class="c" y2="832.576" transform="translate(318.675 307.987)"/><path class="c" d="M454.15-86.87V697.586a39.339,39.339,0,0,1-13.991,30.077l-56.84,47.88L326.5,727.669a39.351,39.351,0,0,1-13.982-30.075h0" transform="translate(-29.228 394.865)"/><path class="c" d="M401.73,775.543V-47.542A39.328,39.328,0,0,1,441.058-86.87h31.1" transform="translate(-47.647 394.865)"/><line class="c" y2="832.576" transform="translate(389.49 307.987)"/><path class="c" d="M543.352-86.87V697.586a39.336,39.336,0,0,1-13.991,30.084l-56.84,47.873-56.809-47.874a39.351,39.351,0,0,1-13.982-30.075h0" transform="translate(-47.647 394.865)"/><path class="c" d="M491,775.543V-47.542A39.328,39.328,0,0,1,530.328-86.87h31.1" transform="translate(-66.078 394.865)"/><line class="c" y2="832.576" transform="translate(460.305 307.987)"/><path class="c" d="M632.6-86.87V697.586a39.336,39.336,0,0,1-13.991,30.084l-56.84,47.873-56.809-47.874A39.32,39.32,0,0,1,491,697.594h0" transform="translate(-66.078 394.865)"/><path class="c" d="M580.21,775.543V-47.542A39.328,39.328,0,0,1,619.546-86.87h31.122" transform="translate(-84.497 394.865)"/><line class="c" y2="832.576" transform="translate(531.12 307.987)"/><path class="c" d="M721.83-86.87V697.586a39.336,39.336,0,0,1-13.991,30.084L651,775.543,594.19,727.669a39.327,39.327,0,0,1-13.99-30.075h0" transform="translate(-84.495 394.865)"/><path class="c" d="M669.44,775.543V-47.542A39.328,39.328,0,0,1,708.768-86.87h31.107" transform="translate(-102.92 394.865)"/><line class="c" y2="832.576" transform="translate(601.935 307.987)"/><path class="c" d="M811.07-86.87V697.586a39.336,39.336,0,0,1-13.991,30.084l-56.84,47.873L683.43,727.669a39.327,39.327,0,0,1-13.99-30.075h0" transform="translate(-102.92 394.865)"/><path class="c" d="M758.68,775.543V-47.542A39.328,39.328,0,0,1,798.008-86.87h31.107" transform="translate(-121.345 394.865)"/><line class="c" y2="832.576" transform="translate(672.75 307.987)"/><path class="c" d="M900.31-86.87V697.586a39.336,39.336,0,0,1-13.991,30.084l-56.84,47.873-56.817-47.874a39.352,39.352,0,0,1-13.982-30.075h0" transform="translate(-121.345 394.865)"/><path class="c" d="M847.92,775.543V-47.542A39.327,39.327,0,0,1,887.247-86.87h31.107" transform="translate(-139.77 394.865)"/><line class="c" x2="0.008" y2="832.576" transform="translate(743.557 307.987)"/><path class="c" d="M989.55-86.87V697.586a39.336,39.336,0,0,1-13.991,30.084l-56.84,47.873L861.9,727.669a39.351,39.351,0,0,1-13.982-30.075h0" transform="translate(-139.77 394.865)"/><path class="c" d="M937.16,775.543V-47.542A39.328,39.328,0,0,1,976.488-86.87h31.106" transform="translate(-158.195 394.865)"/><line class="c" y2="832.576" transform="translate(814.372 307.987)"/><path class="c" d="M1078.788-86.87V697.586a39.332,39.332,0,0,1-13.994,30.08l-56.845,47.877-56.817-47.874a39.351,39.351,0,0,1-13.982-30.075h0" transform="translate(-158.193 394.865)"/><path class="c" d="M1026.4,775.543V-47.542a39.328,39.328,0,0,1,39.359-39.328h31.1" transform="translate(-176.62 394.865)"/><line class="c" y2="832.576" transform="translate(885.187 307.987)"/><path class="c" d="M1168.026-86.87V697.586a39.34,39.34,0,0,1-13.991,30.077l-56.84,47.88-56.833-47.874a39.351,39.351,0,0,1-13.982-30.075h0" transform="translate(-176.616 394.865)"/><path class="c" d="M1115.64,775.543V-47.542a39.327,39.327,0,0,1,39.328-39.328h31.1" transform="translate(-195.045 394.865)"/><line class="c" y2="832.576" transform="translate(956.002 307.987)"/><path class="c" d="M1257.26-86.87V697.586a39.34,39.34,0,0,1-13.991,30.077l-56.848,47.88-56.809-47.874a39.351,39.351,0,0,1-13.982-30.075h0" transform="translate(-195.043 394.865)"/><path class="c" d="M1204.88,775.543V-47.542a39.327,39.327,0,0,1,39.328-39.328h31.1" transform="translate(-213.47 394.865)"/><line class="c" y2="832.576" transform="translate(1026.817 307.987)"/><path class="c" d="M1346.5-86.87V697.586a39.337,39.337,0,0,1-13.991,30.084l-56.84,47.873-56.809-47.874a39.351,39.351,0,0,1-13.982-30.075h0" transform="translate(-213.47 394.865)"/><path class="c" d="M1294.12,775.543V-47.542a39.328,39.328,0,0,1,39.335-39.328h31.1" transform="translate(-231.895 394.865)"/><line class="c" y2="832.576" transform="translate(1097.632 307.987)"/><path class="c" d="M1435.75-86.87V697.586a39.335,39.335,0,0,1-13.958,30.083l-56.841,47.874-56.809-47.874a39.32,39.32,0,0,1-13.982-30.075h0" transform="translate(-231.903 394.865)"/><path class="c" d="M1383.35,775.543V-47.542a39.328,39.328,0,0,1,39.335-39.328h31.1" transform="translate(-250.318 394.865)"/><line class="c" y2="832.576" transform="translate(1168.447 307.987)"/><path class="c" d="M1524.984-86.87V697.586a39.337,39.337,0,0,1-13.991,30.084l-56.84,47.873-56.793-47.874a39.327,39.327,0,0,1-13.99-30.075h0" transform="translate(-250.322 394.865)"/><path class="c" d="M1472.59,775.543V-47.542a39.328,39.328,0,0,1,39.328-39.328h31.106" transform="translate(-268.743 394.865)"/><line class="c" y2="832.576" transform="translate(1239.262 307.987)"/><path class="c" d="M1614.22-86.87V697.586a39.337,39.337,0,0,1-13.991,30.084l-56.84,47.873-56.809-47.874a39.328,39.328,0,0,1-13.99-30.075h0" transform="translate(-268.743 394.865)"/><path class="c" d="M1561.83,775.543V-47.542a39.328,39.328,0,0,1,39.328-39.328h31.107" transform="translate(-287.168 394.865)"/><line class="c" y2="832.576" transform="translate(1310.077 307.987)"/><path class="c" d="M1703.46-86.87V697.586a39.336,39.336,0,0,1-13.991,30.084l-56.84,47.873-56.817-47.874a39.351,39.351,0,0,1-13.982-30.075h0" transform="translate(-287.168 394.865)"/><path class="c" d="M1651.07,775.543V-47.542A39.328,39.328,0,0,1,1690.4-86.87H1721.5" transform="translate(-305.593 394.865)"/><line class="c" x2="0.008" y2="832.576" transform="translate(1380.884 307.987)"/><path class="c" d="M1792.7-86.87V697.586a39.337,39.337,0,0,1-13.991,30.084l-56.84,47.873-56.817-47.874a39.351,39.351,0,0,1-13.982-30.075h0" transform="translate(-305.593 394.865)"/><path class="c" d="M1740.31,775.543V-47.542a39.328,39.328,0,0,1,39.328-39.328h31.1" transform="translate(-324.018 394.865)"/><line class="c" y2="832.576" transform="translate(1451.699 307.987)"/><path class="c" d="M1881.94-86.87V697.586a39.355,39.355,0,0,1-13.983,30.077l-56.848,47.88-56.817-47.874a39.35,39.35,0,0,1-13.982-30.075h0" transform="translate(-324.018 394.865)"/><path class="c" d="M1829.55,775.543V-47.542a39.327,39.327,0,0,1,39.328-39.328h31.1" transform="translate(-342.443 394.865)"/><line class="c" y2="832.576" transform="translate(1522.514 307.987)"/><path class="c" d="M1971.15-86.87V697.586a39.34,39.34,0,0,1-13.991,30.077l-56.84,47.88L1843.5,727.669a39.352,39.352,0,0,1-13.982-30.075h0" transform="translate(-342.437 394.865)"/><path class="c" d="M1918.79,775.543V-47.542a39.328,39.328,0,0,1,39.328-39.328h31.1" transform="translate(-360.868 394.865)"/><line class="c" y2="832.576" transform="translate(1593.329 307.987)"/><path class="c" d="M7.92-86.87V697.586A39.336,39.336,0,0,1-6.071,727.67l-56.84,47.873-56.809-47.874a39.327,39.327,0,0,1-13.99-30.075h0" transform="translate(62.903 394.865)"/><path class="c" d="M-44.47,775.543V-47.542A39.328,39.328,0,0,1-5.142-86.87H25.964" transform="translate(44.478 394.865)"/><line class="c" y2="832.576" transform="translate(35.423 307.987)"/><path class="c" d="M97.152-302V584.521a39.308,39.308,0,0,1-14,30.08L26.329,662.477-30.48,614.6a39.3,39.3,0,0,1-13.99-30.067h0" transform="translate(44.478 439.282)"/><path class="c" d="M44.77,662.477V-262.688A39.328,39.328,0,0,1,84.1-302H115.2" transform="translate(26.053 439.282)"/><line class="c" x2="0.008" y2="934.648" transform="translate(106.23 137.266)"/><path class="c" d="M186.4-302V584.521a39.308,39.308,0,0,1-14,30.08l-56.827,47.877L58.762,614.6A39.319,39.319,0,0,1,44.78,584.529h0" transform="translate(26.051 439.282)"/><path class="c" d="M134,662.477V-262.688A39.328,39.328,0,0,1,173.335-302h31.107" transform="translate(7.63 439.282)"/><line class="c" y2="934.648" transform="translate(177.045 137.266)"/><path class="c" d="M275.638-302V584.521a39.308,39.308,0,0,1-14,30.08l-56.834,47.877L147.99,614.6A39.32,39.32,0,0,1,134,584.529h0" transform="translate(7.63 439.282)"/><path class="c" d="M223.25,662.477V-262.688A39.328,39.328,0,0,1,262.578-302h31.1" transform="translate(-10.797 439.282)"/><line class="c" y2="934.648" transform="translate(247.86 137.266)"/><path class="c" d="M364.88-302V584.521a39.326,39.326,0,0,1-13.988,30.073l-56.843,47.884L237.232,614.6a39.319,39.319,0,0,1-13.982-30.067h0" transform="translate(-10.797 439.282)"/><path class="c" d="M312.49,662.477V-262.688A39.328,39.328,0,0,1,351.818-302h31.1" transform="translate(-29.222 439.282)"/><line class="c" y2="934.648" transform="translate(318.675 137.266)"/><path class="c" d="M454.15-302V584.521a39.311,39.311,0,0,1-14,30.074l-56.834,47.883L326.5,614.6a39.319,39.319,0,0,1-13.982-30.067h0" transform="translate(-29.228 439.282)"/><path class="c" d="M401.73,662.477V-262.688A39.328,39.328,0,0,1,441.058-302h31.1" transform="translate(-47.647 439.282)"/><line class="c" y2="934.648" transform="translate(389.49 137.266)"/><path class="c" d="M543.352-302V584.521a39.308,39.308,0,0,1-14,30.08l-56.835,47.877L415.712,614.6a39.32,39.32,0,0,1-13.982-30.067h0" transform="translate(-47.647 439.282)"/><path class="c" d="M491,662.477V-262.688A39.328,39.328,0,0,1,530.3-302h31.1" transform="translate(-66.078 439.282)"/><line class="c" y2="934.648" transform="translate(460.305 137.266)"/><path class="c" d="M632.6-302V584.521a39.308,39.308,0,0,1-14,30.08l-56.835,47.877L504.958,614.6A39.3,39.3,0,0,1,491,584.529h0" transform="translate(-66.078 439.282)"/><path class="c" d="M580.21,662.477V-262.688A39.328,39.328,0,0,1,619.538-302h31.13" transform="translate(-84.497 439.282)"/><line class="c" y2="934.648" transform="translate(531.12 137.266)"/><path class="c" d="M721.83-302V584.521a39.308,39.308,0,0,1-14,30.08L651,662.477,594.19,614.6a39.3,39.3,0,0,1-13.99-30.067h0" transform="translate(-84.495 439.282)"/><path class="c" d="M669.44,662.477V-262.688A39.327,39.327,0,0,1,708.768-302h31.107" transform="translate(-102.92 439.282)"/><line class="c" y2="934.648" transform="translate(601.935 137.266)"/><path class="c" d="M811.07-302V584.521a39.308,39.308,0,0,1-14,30.08l-56.834,47.877L683.43,614.6a39.3,39.3,0,0,1-13.99-30.067h0" transform="translate(-102.92 439.282)"/><path class="c" d="M758.68,662.477V-262.688A39.327,39.327,0,0,1,798.008-302h31.107" transform="translate(-121.345 439.282)"/><line class="c" y2="934.648" transform="translate(672.75 137.266)"/><path class="c" d="M900.31-302V584.521a39.308,39.308,0,0,1-14,30.08l-56.834,47.877L772.662,614.6a39.319,39.319,0,0,1-13.982-30.067h0" transform="translate(-121.345 439.282)"/><path class="c" d="M847.92,662.477V-262.688A39.327,39.327,0,0,1,887.247-302h31.107" transform="translate(-139.77 439.282)"/><line class="c" x2="0.008" y2="934.648" transform="translate(743.557 137.266)"/><path class="c" d="M989.55-302V584.521a39.308,39.308,0,0,1-14,30.08l-56.835,47.877L861.9,614.6a39.32,39.32,0,0,1-13.982-30.067h0" transform="translate(-139.77 439.282)"/><path class="c" d="M937.16,662.477V-262.688A39.327,39.327,0,0,1,976.488-302h31.1" transform="translate(-158.195 439.282)"/><line class="c" y2="934.648" transform="translate(814.372 137.266)"/><path class="c" d="M1078.79-302V584.521a39.308,39.308,0,0,1-14,30.08l-56.834,47.877L951.142,614.6a39.319,39.319,0,0,1-13.982-30.067h0" transform="translate(-158.195 439.282)"/><path class="c" d="M1026.4,662.477V-262.688A39.328,39.328,0,0,1,1065.759-302h31.1" transform="translate(-176.62 439.282)"/><line class="c" y2="934.648" transform="translate(885.187 137.266)"/><path class="c" d="M1168.026-302V584.521a39.31,39.31,0,0,1-14,30.074L1097.2,662.477,1040.362,614.6a39.32,39.32,0,0,1-13.982-30.067h0" transform="translate(-176.616 439.282)"/><path class="c" d="M1115.64,662.477V-262.688A39.328,39.328,0,0,1,1154.968-302h31.1" transform="translate(-195.045 439.282)"/><line class="c" y2="934.648" transform="translate(956.002 137.266)"/><path class="c" d="M1257.26-302V584.521a39.31,39.31,0,0,1-14,30.074l-56.843,47.883L1129.612,614.6a39.32,39.32,0,0,1-13.982-30.067h0" transform="translate(-195.043 439.282)"/><path class="c" d="M1204.88,662.477V-262.688A39.328,39.328,0,0,1,1244.208-302h31.1" transform="translate(-213.47 439.282)"/><line class="c" y2="934.648" transform="translate(1026.817 137.266)"/><path class="c" d="M1346.5-302V584.521a39.308,39.308,0,0,1-14,30.08l-56.834,47.877L1218.862,614.6a39.32,39.32,0,0,1-13.982-30.067h0" transform="translate(-213.47 439.282)"/><path class="c" d="M1294.12,662.477V-262.688A39.328,39.328,0,0,1,1333.448-302h31.1" transform="translate(-231.895 439.282)"/><line class="c" y2="934.648" transform="translate(1097.632 137.266)"/><path class="c" d="M1435.742-302V584.521a39.308,39.308,0,0,1-14,30.08l-56.834,47.877L1308.1,614.6a39.3,39.3,0,0,1-13.982-30.067h0" transform="translate(-231.895 439.282)"/><path class="c" d="M1383.35,662.477V-262.688A39.328,39.328,0,0,1,1422.686-302h31.1" transform="translate(-250.318 439.282)"/><line class="c" y2="934.648" transform="translate(1168.447 137.266)"/><path class="c" d="M1524.984-302V584.521a39.308,39.308,0,0,1-14,30.08l-56.834,47.877L1397.36,614.6a39.3,39.3,0,0,1-13.99-30.067h0" transform="translate(-250.322 439.282)"/><path class="c" d="M1472.59,662.477V-262.688A39.328,39.328,0,0,1,1511.918-302h31.106" transform="translate(-268.743 439.282)"/><line class="c" y2="934.648" transform="translate(1239.262 137.266)"/><path class="c" d="M1614.22-302V584.521a39.308,39.308,0,0,1-14,30.08l-56.835,47.877L1486.58,614.6a39.3,39.3,0,0,1-13.99-30.067h0" transform="translate(-268.743 439.282)"/><path class="c" d="M1561.83,662.477V-262.688A39.328,39.328,0,0,1,1601.157-302h31.107" transform="translate(-287.168 439.282)"/><line class="c" y2="934.648" transform="translate(1310.077 137.266)"/><path class="c" d="M1703.46-302V584.521a39.309,39.309,0,0,1-14,30.08l-56.834,47.877L1575.812,614.6a39.32,39.32,0,0,1-13.982-30.067h0" transform="translate(-287.168 439.282)"/><path class="c" d="M1651.07,662.477V-262.688A39.328,39.328,0,0,1,1690.4-302H1721.5" transform="translate(-305.593 439.282)"/><line class="c" x2="0.008" y2="934.648" transform="translate(1380.884 137.266)"/><path class="c" d="M1792.7-302V584.521a39.308,39.308,0,0,1-14,30.08l-56.834,47.877L1665.052,614.6a39.319,39.319,0,0,1-13.982-30.067h0" transform="translate(-305.593 439.282)"/><path class="c" d="M1740.31,662.477V-262.688A39.327,39.327,0,0,1,1779.637-302h31.1" transform="translate(-324.018 439.282)"/><line class="c" y2="934.648" transform="translate(1451.699 137.266)"/><path class="c" d="M1881.94-302V584.521a39.326,39.326,0,0,1-13.988,30.073l-56.843,47.883L1754.292,614.6a39.32,39.32,0,0,1-13.982-30.067h0" transform="translate(-324.018 439.282)"/><path class="c" d="M1829.55,662.477V-262.688A39.328,39.328,0,0,1,1868.878-302h31.1" transform="translate(-342.443 439.282)"/><line class="c" y2="934.648" transform="translate(1522.514 137.266)"/><path class="c" d="M1971.15-302V584.521a39.311,39.311,0,0,1-14,30.074l-56.835,47.883L1843.5,614.6a39.32,39.32,0,0,1-13.982-30.067h0" transform="translate(-342.437 439.282)"/><path class="c" d="M1918.79,662.477V-262.688A39.327,39.327,0,0,1,1958.118-302h31.1" transform="translate(-360.868 439.282)"/><line class="c" y2="934.648" transform="translate(1593.329 137.266)"/><path class="c" d="M7.92-302V584.521a39.308,39.308,0,0,1-14,30.08l-56.834,47.877L-119.72,614.6a39.3,39.3,0,0,1-13.99-30.067h0" transform="translate(62.903 439.282)"/><path class="c" d="M-44.47,662.477V-262.688A39.328,39.328,0,0,1-5.142-302H25.964" transform="translate(44.478 439.282)"/><line class="c" y2="934.648" transform="translate(35.423 137.266)"/><path class="c" d="M97.152-388.53V498.006a39.308,39.308,0,0,1-14,30.08L26.329,575.963-30.48,528.081a39.3,39.3,0,0,1-13.99-30.067h0" transform="translate(44.478 457.147)"/><path class="c" d="M44.77,575.957V-349.232A39.328,39.328,0,0,1,84.1-388.56H115.2" transform="translate(26.053 457.153)"/><line class="c" x2="0.008" y2="934.648" transform="translate(106.23 68.617)"/><path class="c" d="M186.4-388.53V498.006a39.308,39.308,0,0,1-14,30.08l-56.827,47.876L58.762,528.081A39.32,39.32,0,0,1,44.78,498.014h0" transform="translate(26.051 457.147)"/><path class="c" d="M134,575.957V-349.232a39.328,39.328,0,0,1,39.328-39.328h31.107" transform="translate(7.63 457.153)"/><line class="c" y2="934.648" transform="translate(177.045 68.617)"/><path class="c" d="M275.638-388.53V498.006a39.308,39.308,0,0,1-14,30.08l-56.834,47.876L147.99,528.081A39.32,39.32,0,0,1,134,498.014h0" transform="translate(7.63 457.147)"/><path class="c" d="M223.25,575.957V-349.232a39.328,39.328,0,0,1,39.328-39.328h31.1" transform="translate(-10.797 457.153)"/><line class="c" y2="934.648" transform="translate(247.86 68.617)"/><path class="c" d="M364.88-388.53V498.006a39.326,39.326,0,0,1-13.988,30.073l-56.843,47.884-56.817-47.882a39.32,39.32,0,0,1-13.982-30.067h0" transform="translate(-10.797 457.147)"/><path class="c" d="M312.49,575.957V-349.232a39.328,39.328,0,0,1,39.328-39.328h31.1" transform="translate(-29.222 457.153)"/><line class="c" y2="934.648" transform="translate(318.675 68.617)"/><path class="c" d="M454.15-388.53V498.006a39.311,39.311,0,0,1-14,30.074l-56.834,47.883L326.5,528.081a39.32,39.32,0,0,1-13.982-30.067h0" transform="translate(-29.228 457.147)"/><path class="c" d="M401.73,575.957V-349.232a39.328,39.328,0,0,1,39.328-39.328h31.1" transform="translate(-47.647 457.153)"/><line class="c" y2="934.648" transform="translate(389.49 68.617)"/><path class="c" d="M543.352-388.53V498.006a39.308,39.308,0,0,1-14,30.08l-56.835,47.876-56.809-47.882a39.32,39.32,0,0,1-13.982-30.067h0" transform="translate(-47.647 457.147)"/><path class="c" d="M491,575.957V-349.232a39.328,39.328,0,0,1,39.328-39.328h31.1" transform="translate(-66.078 457.153)"/><line class="c" y2="934.648" transform="translate(460.305 68.617)"/><path class="c" d="M632.6-388.53V498.006a39.309,39.309,0,0,1-14,30.08l-56.835,47.876-56.809-47.882A39.3,39.3,0,0,1,491,498.014h0" transform="translate(-66.078 457.147)"/><path class="c" d="M580.21,575.957V-349.232a39.328,39.328,0,0,1,39.336-39.328h31.122" transform="translate(-84.497 457.153)"/><line class="c" y2="934.648" transform="translate(531.12 68.617)"/><path class="c" d="M721.83-388.53V498.006a39.308,39.308,0,0,1-14,30.08L651,575.963,594.19,528.081a39.3,39.3,0,0,1-13.99-30.067h0" transform="translate(-84.495 457.147)"/><path class="c" d="M669.44,575.963V-349.226a39.328,39.328,0,0,1,39.328-39.3h31.107" transform="translate(-102.92 457.147)"/><line class="c" y2="934.648" transform="translate(601.935 68.617)"/><path class="c" d="M811.07-388.53V498.006a39.308,39.308,0,0,1-14,30.08l-56.834,47.876L683.43,528.081a39.3,39.3,0,0,1-13.99-30.067h0" transform="translate(-102.92 457.147)"/><path class="c" d="M758.68,575.957V-349.232a39.328,39.328,0,0,1,39.328-39.328h31.107" transform="translate(-121.345 457.153)"/><line class="c" y2="934.648" transform="translate(672.75 68.617)"/><path class="c" d="M900.31-388.53V498.006a39.308,39.308,0,0,1-14,30.08l-56.834,47.877-56.817-47.882a39.32,39.32,0,0,1-13.982-30.067h0" transform="translate(-121.345 457.147)"/><path class="c" d="M847.92,575.957V-349.232a39.328,39.328,0,0,1,39.328-39.328h31.107" transform="translate(-139.77 457.153)"/><line class="c" x2="0.008" y2="934.648" transform="translate(743.557 68.617)"/><path class="c" d="M989.55-388.53V498.006a39.308,39.308,0,0,1-14,30.08l-56.835,47.876L861.9,528.081a39.32,39.32,0,0,1-13.982-30.067h0" transform="translate(-139.77 457.147)"/><path class="c" d="M937.16,575.957V-349.232a39.328,39.328,0,0,1,39.328-39.328h31.1" transform="translate(-158.195 457.153)"/><line class="c" y2="934.648" transform="translate(814.372 68.617)"/><path class="c" d="M1078.79-388.53V498.006a39.307,39.307,0,0,1-14,30.08l-56.835,47.877-56.817-47.882a39.319,39.319,0,0,1-13.982-30.067h0" transform="translate(-158.195 457.147)"/><path class="c" d="M1026.4,575.963V-349.226a39.328,39.328,0,0,1,39.359-39.3h31.1" transform="translate(-176.62 457.147)"/><line class="c" y2="934.648" transform="translate(885.187 68.617)"/><path class="c" d="M1168.026-388.53V498.006a39.31,39.31,0,0,1-14,30.074L1097.2,575.963l-56.833-47.882a39.32,39.32,0,0,1-13.982-30.067h0" transform="translate(-176.616 457.147)"/><path class="c" d="M1115.64,575.957V-349.232a39.327,39.327,0,0,1,39.328-39.328h31.1" transform="translate(-195.045 457.153)"/><line class="c" y2="934.648" transform="translate(956.002 68.617)"/><path class="c" d="M1257.26-388.53V498.006a39.31,39.31,0,0,1-14,30.074l-56.842,47.883-56.809-47.882a39.32,39.32,0,0,1-13.982-30.067h0" transform="translate(-195.043 457.147)"/><path class="c" d="M1204.88,575.957V-349.232a39.327,39.327,0,0,1,39.328-39.328h31.1" transform="translate(-213.47 457.153)"/><line class="c" y2="934.648" transform="translate(1026.817 68.617)"/><path class="c" d="M1346.5-388.53V498.006a39.308,39.308,0,0,1-14,30.08l-56.835,47.877-56.809-47.882a39.32,39.32,0,0,1-13.982-30.067h0" transform="translate(-213.47 457.147)"/><path class="c" d="M1294.12,575.957V-349.232a39.328,39.328,0,0,1,39.335-39.328h31.1" transform="translate(-231.895 457.153)"/><line class="c" y2="934.648" transform="translate(1097.632 68.617)"/><path class="c" d="M1435.742-388.53V498.006a39.308,39.308,0,0,1-14,30.08l-56.834,47.876L1308.1,528.081a39.3,39.3,0,0,1-13.982-30.067h0" transform="translate(-231.895 457.147)"/><path class="c" d="M1383.35,575.957V-349.232a39.328,39.328,0,0,1,39.335-39.328h31.1" transform="translate(-250.318 457.153)"/><line class="c" y2="934.648" transform="translate(1168.447 68.617)"/><path class="c" d="M1524.984-388.53V498.006a39.308,39.308,0,0,1-14,30.08l-56.834,47.876-56.793-47.882a39.3,39.3,0,0,1-13.99-30.067h0" transform="translate(-250.322 457.147)"/><path class="c" d="M1472.59,575.957V-349.232a39.328,39.328,0,0,1,39.328-39.328h31.106" transform="translate(-268.743 457.153)"/><line class="c" y2="934.648" transform="translate(1239.262 68.617)"/><path class="c" d="M1614.22-388.53V498.006a39.307,39.307,0,0,1-14,30.08l-56.835,47.876-56.809-47.882a39.3,39.3,0,0,1-13.99-30.067h0" transform="translate(-268.743 457.147)"/><path class="c" d="M1561.83,575.957V-349.232a39.328,39.328,0,0,1,39.328-39.328h31.107" transform="translate(-287.168 457.153)"/><line class="c" y2="934.648" transform="translate(1310.077 68.617)"/><path class="c" d="M1703.46-388.53V498.006a39.308,39.308,0,0,1-14,30.08l-56.835,47.876-56.817-47.882a39.32,39.32,0,0,1-13.982-30.067h0" transform="translate(-287.168 457.147)"/><path class="c" d="M1651.07,575.957V-349.232A39.328,39.328,0,0,1,1690.4-388.56H1721.5" transform="translate(-305.593 457.153)"/><line class="c" x2="0.008" y2="934.648" transform="translate(1380.884 68.617)"/><path class="c" d="M1792.7-388.53V498.006a39.308,39.308,0,0,1-14,30.08l-56.834,47.876-56.817-47.882a39.32,39.32,0,0,1-13.982-30.067h0" transform="translate(-305.593 457.147)"/><path class="c" d="M1740.31,575.957V-349.232a39.328,39.328,0,0,1,39.328-39.328h31.1" transform="translate(-324.018 457.153)"/><line class="c" y2="934.648" transform="translate(1451.699 68.617)"/><path class="c" d="M1881.94-388.53V498.006a39.326,39.326,0,0,1-13.988,30.073l-56.843,47.884-56.817-47.882a39.32,39.32,0,0,1-13.982-30.067h0" transform="translate(-324.018 457.147)"/><path class="c" d="M1829.55,575.957V-349.232a39.327,39.327,0,0,1,39.328-39.328h31.1" transform="translate(-342.443 457.153)"/><line class="c" y2="934.648" transform="translate(1522.514 68.617)"/><path class="c" d="M1971.15-388.53V498.006a39.311,39.311,0,0,1-14,30.074l-56.835,47.883L1843.5,528.081a39.32,39.32,0,0,1-13.982-30.067h0" transform="translate(-342.437 457.147)"/><path class="c" d="M1918.79,575.957V-349.232a39.328,39.328,0,0,1,39.328-39.328h31.1" transform="translate(-360.868 457.153)"/><line class="c" y2="934.648" transform="translate(1593.329 68.617)"/><path class="c" d="M7.92-388.53V498.006a39.308,39.308,0,0,1-14,30.08l-56.834,47.876-56.809-47.882a39.3,39.3,0,0,1-13.99-30.067h0" transform="translate(62.903 457.147)"/><path class="c" d="M-44.47,575.963V-349.226a39.328,39.328,0,0,1,39.328-39.3H25.964" transform="translate(44.478 457.147)"/><line class="c" y2="934.648" transform="translate(35.423 68.617)"/><path class="c" d="M97.152-475V411.5A39.32,39.32,0,0,1,83.161,441.58L26.329,489.462-30.48,441.58a39.3,39.3,0,0,1-13.99-30.067h0" transform="translate(44.478 475)"/><path class="c" d="M44.77,489.462V-435.7A39.328,39.328,0,0,1,84.1-475H115.2" transform="translate(26.053 475)"/><line class="c" x2="0.008" y2="934.648" transform="translate(106.23 -0.032)"/><path class="c" d="M186.4-475V411.5a39.32,39.32,0,0,1-13.991,30.076l-56.832,47.881L58.762,441.58A39.32,39.32,0,0,1,44.78,411.513h0" transform="translate(26.051 475)"/><path class="c" d="M134,489.462V-435.7A39.328,39.328,0,0,1,173.336-475h31.107" transform="translate(7.63 475)"/><line class="c" y2="934.648" transform="translate(177.045 -0.032)"/><path class="c" d="M275.638-475V411.5a39.32,39.32,0,0,1-13.991,30.076l-56.84,47.881L147.99,441.58A39.32,39.32,0,0,1,134,411.513h0" transform="translate(7.63 475)"/><path class="c" d="M223.25,489.462V-435.7A39.328,39.328,0,0,1,262.578-475h31.1" transform="translate(-10.797 475)"/><line class="c" y2="934.648" transform="translate(247.86 -0.032)"/><path class="c" d="M364.88-475V411.5a39.343,39.343,0,0,1-13.99,30.075l-56.841,47.882L237.232,441.58a39.32,39.32,0,0,1-13.982-30.067h0" transform="translate(-10.797 475)"/><path class="c" d="M312.49,489.462V-435.7A39.328,39.328,0,0,1,351.818-475h31.1" transform="translate(-29.222 475)"/><line class="c" y2="934.648" transform="translate(318.675 -0.032)"/><path class="c" d="M454.144-475V411.5a39.323,39.323,0,0,1-13.991,30.069l-56.864,47.888L326.472,441.58a39.319,39.319,0,0,1-13.982-30.067h0" transform="translate(-29.222 475)"/><path class="c" d="M401.73,489.462V-435.7A39.328,39.328,0,0,1,441.058-475h31.1" transform="translate(-47.647 475)"/><line class="c" y2="934.648" transform="translate(389.49 -0.032)"/><path class="c" d="M543.352-475V411.5a39.32,39.32,0,0,1-13.991,30.076l-56.84,47.881L415.712,441.58a39.319,39.319,0,0,1-13.982-30.067h0" transform="translate(-47.647 475)"/><path class="c" d="M491,489.462V-435.7A39.328,39.328,0,0,1,530.3-475h31.1" transform="translate(-66.078 475)"/><line class="c" y2="934.648" transform="translate(460.305 -0.032)"/><path class="c" d="M632.6-475V411.5a39.32,39.32,0,0,1-13.991,30.076l-56.84,47.881L504.958,441.58A39.3,39.3,0,0,1,491,411.513h0" transform="translate(-66.078 475)"/><path class="c" d="M580.2,489.462V-435.7A39.328,39.328,0,0,1,619.536-475h31.13" transform="translate(-84.495 475)"/><line class="c" y2="934.648" transform="translate(531.12 -0.032)"/><path class="c" d="M721.83-475V411.5a39.32,39.32,0,0,1-13.991,30.076L651,489.462,594.19,441.58a39.3,39.3,0,0,1-13.99-30.067h0" transform="translate(-84.495 475)"/><path class="c" d="M669.44,489.462V-435.7A39.328,39.328,0,0,1,708.768-475h31.107" transform="translate(-102.92 475)"/><line class="c" y2="934.648" transform="translate(601.935 -0.032)"/><path class="c" d="M811.07-475V411.5a39.32,39.32,0,0,1-13.991,30.076l-56.84,47.881L683.43,441.58a39.3,39.3,0,0,1-13.99-30.067h0" transform="translate(-102.92 475)"/><path class="c" d="M758.68,489.462V-435.7A39.328,39.328,0,0,1,798.008-475h31.107" transform="translate(-121.345 475)"/><line class="c" y2="934.648" transform="translate(672.75 -0.032)"/><path class="c" d="M900.31-475V411.5a39.32,39.32,0,0,1-13.991,30.076l-56.84,47.881L772.662,441.58a39.32,39.32,0,0,1-13.982-30.067h0" transform="translate(-121.345 475)"/><path class="c" d="M847.92,489.462V-435.7A39.328,39.328,0,0,1,887.247-475h31.107" transform="translate(-139.77 475)"/><line class="c" x2="0.008" y2="934.648" transform="translate(743.557 -0.032)"/><path class="c" d="M989.55-475V411.5a39.32,39.32,0,0,1-13.991,30.076l-56.84,47.881L861.9,441.58a39.32,39.32,0,0,1-13.982-30.067h0" transform="translate(-139.77 475)"/><path class="c" d="M937.16,489.462V-435.7A39.327,39.327,0,0,1,976.488-475h31.1" transform="translate(-158.195 475)"/><line class="c" y2="934.648" transform="translate(814.372 -0.032)"/><path class="c" d="M1078.79-475V411.5A39.319,39.319,0,0,1,1064.8,441.58l-56.84,47.881L951.142,441.58a39.319,39.319,0,0,1-13.982-30.067h0" transform="translate(-158.195 475)"/><path class="c" d="M1026.4,489.462V-435.7a39.328,39.328,0,0,1,39.359-39.3h31.1" transform="translate(-176.62 475)"/><line class="c" y2="934.648" transform="translate(885.187 -0.032)"/><path class="c" d="M1168.026-475V411.5a39.322,39.322,0,0,1-13.991,30.069l-56.84,47.888-56.833-47.882a39.32,39.32,0,0,1-13.982-30.067h0" transform="translate(-176.616 475)"/><path class="c" d="M1115.64,489.462V-435.7a39.328,39.328,0,0,1,39.328-39.3h31.1" transform="translate(-195.045 475)"/><line class="c" y2="934.648" transform="translate(956.002 -0.032)"/><path class="c" d="M1257.26-475V411.5a39.323,39.323,0,0,1-13.991,30.069l-56.848,47.888-56.809-47.882a39.32,39.32,0,0,1-13.982-30.067h0" transform="translate(-195.043 475)"/><path class="c" d="M1204.88,489.462V-435.7a39.327,39.327,0,0,1,39.328-39.3h31.1" transform="translate(-213.47 475)"/><line class="c" y2="934.648" transform="translate(1026.817 -0.032)"/><path class="c" d="M1346.5-475V411.5a39.32,39.32,0,0,1-13.991,30.076l-56.84,47.881-56.809-47.882a39.32,39.32,0,0,1-13.982-30.067h0" transform="translate(-213.47 475)"/><path class="c" d="M1294.12,489.462V-435.7a39.328,39.328,0,0,1,39.328-39.3h31.1" transform="translate(-231.895 475)"/><line class="c" y2="934.648" transform="translate(1097.632 -0.032)"/><path class="c" d="M1435.742-475V411.5a39.319,39.319,0,0,1-13.991,30.076l-56.84,47.881L1308.1,441.58a39.3,39.3,0,0,1-13.982-30.067h0" transform="translate(-231.895 475)"/><path class="c" d="M1383.35,489.462V-435.7a39.327,39.327,0,0,1,39.335-39.3h31.1" transform="translate(-250.318 475)"/><line class="c" y2="934.648" transform="translate(1168.447 -0.032)"/><path class="c" d="M1524.984-475V411.5a39.32,39.32,0,0,1-13.991,30.076l-56.84,47.881L1397.36,441.58a39.3,39.3,0,0,1-13.99-30.067h0" transform="translate(-250.322 475)"/><path class="c" d="M1472.59,489.462V-435.7a39.328,39.328,0,0,1,39.328-39.3h31.106" transform="translate(-268.743 475)"/><line class="c" y2="934.648" transform="translate(1239.262 -0.032)"/><path class="c" d="M1614.22-475V411.5a39.32,39.32,0,0,1-13.991,30.076l-56.84,47.881L1486.58,441.58a39.3,39.3,0,0,1-13.99-30.067h0" transform="translate(-268.743 475)"/><path class="c" d="M1561.83,489.462V-435.7a39.328,39.328,0,0,1,39.328-39.3h31.107" transform="translate(-287.168 475)"/><line class="c" y2="934.648" transform="translate(1310.077 -0.032)"/><path class="c" d="M1703.46-475V411.5a39.32,39.32,0,0,1-13.991,30.076l-56.84,47.881-56.817-47.882a39.32,39.32,0,0,1-13.982-30.067h0" transform="translate(-287.168 475)"/><path class="c" d="M1651.07,489.462V-435.7A39.328,39.328,0,0,1,1690.4-475H1721.5" transform="translate(-305.593 475)"/><line class="c" x2="0.008" y2="934.648" transform="translate(1380.884 -0.032)"/><path class="c" d="M1792.7-475V411.5a39.319,39.319,0,0,1-13.991,30.076l-56.84,47.881-56.817-47.882a39.319,39.319,0,0,1-13.982-30.067h0" transform="translate(-305.593 475)"/><path class="c" d="M1740.31,489.462V-435.7a39.327,39.327,0,0,1,39.327-39.3h31.1" transform="translate(-324.018 475)"/><line class="c" y2="934.648" transform="translate(1451.699 -0.032)"/><path class="c" d="M1881.94-475V411.5a39.343,39.343,0,0,1-13.99,30.075l-56.841,47.882-56.817-47.882a39.319,39.319,0,0,1-13.982-30.067h0" transform="translate(-324.018 475)"/><path class="c" d="M1829.55,489.462V-435.7a39.327,39.327,0,0,1,39.328-39.3h31.1" transform="translate(-342.443 475)"/><line class="c" y2="934.648" transform="translate(1522.514 -0.032)"/><path class="c" d="M1971.15-475V411.5a39.323,39.323,0,0,1-13.991,30.069l-56.84,47.888L1843.5,441.58a39.32,39.32,0,0,1-13.982-30.067h0" transform="translate(-342.437 475)"/><path class="c" d="M1918.79,489.462V-435.7a39.327,39.327,0,0,1,39.327-39.3h31.1" transform="translate(-360.868 475)"/><line class="c" y2="934.648" transform="translate(1593.329 -0.032)"/><path class="c" d="M7.92-475V411.5a39.308,39.308,0,0,1-14,30.08l-56.834,47.877L-119.72,441.58a39.3,39.3,0,0,1-13.99-30.067h0" transform="translate(62.903 475)"/><path class="c" d="M-44.47,489.462V-435.7A39.328,39.328,0,0,1-5.142-475H25.964" transform="translate(44.478 475)"/><line class="c" y2="934.648" transform="translate(35.423 -0.032)"/></g></svg>