<svg xmlns="http://www.w3.org/2000/svg" width="127" height="127" viewBox="0 0 127 127"><defs><style>.a,.d{fill:none;}.a{stroke:#936957;stroke-width:4px;}.b{fill:#a4a6a8;}.c{stroke:none;}</style></defs><g transform="translate(-309 -475.027)"><g class="a" transform="translate(309 475.027)"><circle class="c" cx="63.5" cy="63.5" r="63.5"/><circle class="d" cx="63.5" cy="63.5" r="61.5"/></g><path class="b" d="M57.114,16A1.114,1.114,0,0,0,56,17.114V81.739a1.114,1.114,0,0,0,1.114,1.114H110.6a1.114,1.114,0,0,0,1.114-1.114V21.571A5.577,5.577,0,0,0,106.14,16Zm52.368,64.625H58.228v-62.4h42.34a2.231,2.231,0,0,1,2.228,2.228v5.571a1.114,1.114,0,0,0,1.114,1.114h5.571Zm0-59.054v3.343h-4.457V20.457a4.428,4.428,0,0,0-.6-2.228h1.713a3.347,3.347,0,0,1,3.343,3.343Z" transform="translate(288.645 490.285)"/><path class="b" d="M142.685,114.228h3.343a1.114,1.114,0,0,0,0-2.228h-8.914a1.114,1.114,0,1,0,0,2.228h3.343v10.028a1.114,1.114,0,0,0,2.228,0Z" transform="translate(219.786 407.656)"/><path class="b" d="M312,124.254a1.114,1.114,0,0,0,2.07.575l2.387-3.979,2.387,3.979a1.114,1.114,0,1,0,1.911-1.147l-3-5,3-5a1.114,1.114,0,1,0-1.911-1.147l-2.387,3.979-2.387-3.979a1.114,1.114,0,0,0-1.911,1.147l3,5-3,5A1.107,1.107,0,0,0,312,124.254Z" transform="translate(68.301 407.658)"/><path class="b" d="M103.8,58.228a1.114,1.114,0,0,0,0-2.228H97.114a1.114,1.114,0,1,0,0,2.228Z" transform="translate(254.215 455.857)"/><path class="b" d="M109.571,240h-4.457a1.114,1.114,0,1,0,0,2.228h4.457a1.114,1.114,0,1,0,0-2.228Z" transform="translate(247.33 297.484)"/><path class="b" d="M202.942,240H185.114a1.114,1.114,0,1,0,0,2.228h17.828a1.114,1.114,0,1,0,0-2.228Z" transform="translate(178.472 297.484)"/><path class="b" d="M377.114,240a1.114,1.114,0,0,0,0,2.228h2.228a1.114,1.114,0,1,0,0-2.228Z" transform="translate(13.213 297.484)"/><path class="b" d="M109.571,272h-4.457a1.114,1.114,0,0,0,0,2.228h4.457a1.114,1.114,0,0,0,0-2.228Z" transform="translate(247.33 269.941)"/><path class="b" d="M202.942,272H185.114a1.114,1.114,0,0,0,0,2.228h17.828a1.114,1.114,0,0,0,0-2.228Z" transform="translate(178.472 269.941)"/><path class="b" d="M379.343,272h-2.228a1.114,1.114,0,0,0,0,2.228h2.228a1.114,1.114,0,1,0,0-2.228Z" transform="translate(13.213 269.941)"/><path class="b" d="M109.571,304h-4.457a1.114,1.114,0,1,0,0,2.228h4.457a1.114,1.114,0,1,0,0-2.228Z" transform="translate(247.33 242.398)"/><path class="b" d="M202.942,304H185.114a1.114,1.114,0,1,0,0,2.228h17.828a1.114,1.114,0,1,0,0-2.228Z" transform="translate(178.472 242.398)"/><path class="b" d="M379.343,304h-2.228a1.114,1.114,0,0,0,0,2.228h2.228a1.114,1.114,0,1,0,0-2.228Z" transform="translate(13.213 242.398)"/><path class="b" d="M109.571,336h-4.457a1.114,1.114,0,0,0,0,2.229h4.457a1.114,1.114,0,0,0,0-2.229Z" transform="translate(247.33 214.855)"/><path class="b" d="M202.942,336H185.114a1.114,1.114,0,0,0,0,2.229h17.828a1.114,1.114,0,0,0,0-2.229Z" transform="translate(178.472 214.855)"/><path class="b" d="M379.343,336h-2.228a1.114,1.114,0,0,0,0,2.229h2.228a1.114,1.114,0,0,0,0-2.229Z" transform="translate(13.213 214.855)"/><path class="b" d="M109.571,368h-4.457a1.114,1.114,0,0,0,0,2.229h4.457a1.114,1.114,0,0,0,0-2.229Z" transform="translate(247.33 187.313)"/><path class="b" d="M204.056,369.114A1.114,1.114,0,0,0,202.942,368H185.114a1.114,1.114,0,0,0,0,2.229h17.828A1.114,1.114,0,0,0,204.056,369.114Z" transform="translate(178.472 187.313)"/><path class="b" d="M379.343,368h-2.228a1.114,1.114,0,0,0,0,2.229h2.228a1.114,1.114,0,0,0,0-2.229Z" transform="translate(13.213 187.313)"/><path class="b" d="M344,417.114a1.114,1.114,0,0,0,1.114,1.114h8.914a1.114,1.114,0,1,0,0-2.228h-8.914A1.114,1.114,0,0,0,344,417.114Z" transform="translate(40.757 145.996)"/><path class="b" d="M298.942,448H281.114a1.114,1.114,0,0,0,0,2.228h17.828a1.114,1.114,0,0,0,0-2.228Z" transform="translate(95.843 118.453)"/><path class="b" d="M227.061,123.842,222.6,112.7a1.114,1.114,0,0,0-2.069,0l-4.457,11.142a1.114,1.114,0,1,0,2.069.828l1.5-3.756h3.84l1.5,3.756a1.114,1.114,0,1,0,2.069-.828Zm-6.52-5.157,1.028-2.571,1.028,2.571Z" transform="translate(150.931 407.656)"/></g></svg>