<svg xmlns="http://www.w3.org/2000/svg" width="404" height="509.031" viewBox="0 0 404 509.031"><defs><style>.a{fill:#fff;stroke:#707070;}</style></defs><path class="a" d="M37.386,394.641A104.961,104.961,0,0,1,0,314.234H43.849a61.206,61.206,0,0,0,21.8,46.876l84.21,70.974V105.191A105.275,105.275,0,0,1,255.018,0H403V43.849H343.575V314.213a104.93,104.93,0,0,1-37.417,80.428L171.751,507.877Zm156.331-289.45v326.84l31.09-26.191V51.829A61.356,61.356,0,0,0,193.717,105.191Zm74.95,263.7,9.25-7.792a61.172,61.172,0,0,0,21.809-46.887V43.849H268.667ZM201.458,253.939h0Z" transform="translate(0.5 0.5)"/></svg>